<mxfile host="Electron" agent="Mozilla/5.0 (Macintosh; Intel Mac OS X 10_15_7) AppleWebKit/537.36 (KHTML, like Gecko) draw.io/24.7.17 Chrome/128.0.6613.36 Electron/32.0.1 Safari/537.36" version="24.7.17">
  <diagram name="Page-1" id="Ie1XLguJOoAYk6Dfo6U5">
    <mxGraphModel dx="1114" dy="821" grid="1" gridSize="10" guides="1" tooltips="1" connect="1" arrows="1" fold="1" page="1" pageScale="1" pageWidth="827" pageHeight="1169" math="0" shadow="0">
      <root>
        <mxCell id="0" />
        <mxCell id="1" parent="0" />
        <mxCell id="2wA65lZlTIX12BtD9wdr-3" value="&lt;div style=&quot;background-color:#ffffff;color:#080808&quot;&gt;&lt;pre style=&quot;font-family:&#39;IBM Plex Mono&#39;,monospace;font-size:9.8pt;&quot;&gt;&lt;span style=&quot;color:#0033b3;&quot;&gt;&lt;b&gt;fun&lt;/b&gt; &lt;/span&gt;&lt;span style=&quot;color:#00627a;&quot;&gt;lookForAssu1&lt;/span&gt;&lt;span style=&quot;color:#3f9101;&quot;&gt;(&lt;/span&gt;&lt;span style=&quot;color:#000000;&quot;&gt;person&lt;/span&gt;: &lt;span style=&quot;color:#000000;&quot;&gt;List&lt;/span&gt;&lt;span style=&quot;color:#3f9101;&quot;&gt;&amp;lt;&lt;/span&gt;&lt;span style=&quot;color:#000000;&quot;&gt;Person3&lt;/span&gt;&lt;span style=&quot;color:#3f9101;&quot;&gt;&amp;gt;) {&lt;br&gt;&lt;/span&gt;&lt;span style=&quot;color:#3f9101;&quot;&gt;    &lt;/span&gt;&lt;span style=&quot;color:#699601;&quot;&gt;person&lt;/span&gt;.&lt;span style=&quot;color:#00627a;font-style:italic;&quot;&gt;forEach &lt;/span&gt;&lt;span style=&quot;font-weight:bold;&quot;&gt;{&lt;br&gt;&lt;/span&gt;&lt;span style=&quot;font-weight:bold;&quot;&gt;        &lt;/span&gt;&lt;span style=&quot;color:#0033b3;&quot;&gt;if &lt;/span&gt;&lt;span style=&quot;color:#3f9101;&quot;&gt;(&lt;/span&gt;&lt;span style=&quot;color:#c86603;&quot;&gt;it&lt;/span&gt;.&lt;span style=&quot;color:#871094;&quot;&gt;name &lt;/span&gt;== &lt;span style=&quot;color:#067d17;&quot;&gt;&quot;Assu&quot;&lt;/span&gt;&lt;span style=&quot;color:#3f9101;&quot;&gt;) &lt;/span&gt;&lt;span style=&quot;color:#b4960a;&quot;&gt;{&lt;br&gt;&lt;/span&gt;&lt;span style=&quot;color:#b4960a;&quot;&gt;            &lt;/span&gt;&lt;span style=&quot;color:#00627a;font-style:italic;&quot;&gt;println&lt;/span&gt;&lt;span style=&quot;color:#0e4a8e;&quot;&gt;(&lt;/span&gt;&lt;span style=&quot;color:#067d17;&quot;&gt;&quot;Found!&quot;&lt;/span&gt;&lt;span style=&quot;color:#0e4a8e;&quot;&gt;)&lt;br&gt;&lt;/span&gt;&lt;span style=&quot;color:#0e4a8e;&quot;&gt;&lt;b&gt;            &lt;/b&gt;&lt;/span&gt;&lt;span style=&quot;color:#0033b3;&quot;&gt;&lt;b&gt;return&lt;/b&gt;&lt;br&gt;&lt;/span&gt;&lt;span style=&quot;color:#0033b3;&quot;&gt;        &lt;/span&gt;&lt;span style=&quot;color:#b4960a;&quot;&gt;}&lt;br&gt;&lt;/span&gt;&lt;span style=&quot;color:#b4960a;&quot;&gt;    &lt;/span&gt;&lt;span style=&quot;color:#0e4a8e;&quot;&gt;}&lt;br&gt;&lt;/span&gt;&lt;span style=&quot;color:#3f9101;&quot;&gt;}&lt;br&gt;&lt;/span&gt;&lt;/pre&gt;&lt;/div&gt;" style="text;whiteSpace=wrap;html=1;" vertex="1" parent="1">
          <mxGeometry x="90" y="270" width="350" height="180" as="geometry" />
        </mxCell>
        <mxCell id="2wA65lZlTIX12BtD9wdr-6" value="&lt;div style=&quot;background-color:#ffffff;color:#080808&quot;&gt;&lt;pre style=&quot;font-family:&#39;IBM Plex Mono&#39;,monospace;font-size:9.8pt;&quot;&gt;&lt;span style=&quot;color:#0033b3;&quot;&gt;fun &lt;/span&gt;&lt;span style=&quot;color:#00627a;&quot;&gt;lookForAssu&lt;/span&gt;&lt;span style=&quot;color:#3f9101;&quot;&gt;(&lt;/span&gt;&lt;span style=&quot;color:#000000;&quot;&gt;person&lt;/span&gt;: &lt;span style=&quot;color:#000000;&quot;&gt;List&lt;/span&gt;&lt;span style=&quot;color:#3f9101;&quot;&gt;&amp;lt;&lt;/span&gt;&lt;span style=&quot;color:#000000;&quot;&gt;Person5&lt;/span&gt;&lt;span style=&quot;color:#3f9101;&quot;&gt;&amp;gt;) {&lt;br&gt;&lt;/span&gt;&lt;span style=&quot;color:#3f9101;&quot;&gt;    &lt;/span&gt;&lt;span style=&quot;color:#699601;&quot;&gt;person&lt;/span&gt;.&lt;span style=&quot;color:#00627a;font-style:italic;&quot;&gt;forEach&lt;/span&gt;&lt;span style=&quot;color:#3f9101;&quot;&gt;(&lt;/span&gt;&lt;span style=&quot;color:#0033b3;&quot;&gt;&lt;b&gt;fun&lt;/b&gt;&lt;/span&gt;&lt;span style=&quot;color:#0e4a8e;&quot;&gt;(&lt;/span&gt;&lt;span style=&quot;color:#000000;&quot;&gt;p&lt;/span&gt;&lt;span style=&quot;color:#0e4a8e;&quot;&gt;) {&lt;br&gt;&lt;/span&gt;&lt;span style=&quot;color:#0e4a8e;&quot;&gt;        &lt;/span&gt;&lt;span style=&quot;color:#0033b3;&quot;&gt;if &lt;/span&gt;&lt;span style=&quot;color:#0e4a8e;&quot;&gt;(&lt;/span&gt;&lt;span style=&quot;color:#024f45;&quot;&gt;p&lt;/span&gt;.&lt;span style=&quot;color:#871094;&quot;&gt;name &lt;/span&gt;== &lt;span style=&quot;color:#067d17;&quot;&gt;&quot;Assu&quot;&lt;/span&gt;&lt;span style=&quot;color:#0e4a8e;&quot;&gt;) &lt;/span&gt;&lt;span style=&quot;color:#b4960a;&quot;&gt;{&lt;br&gt;&lt;/span&gt;&lt;span style=&quot;color:#b4960a;&quot;&gt;            &lt;/span&gt;&lt;span style=&quot;color:#0033b3;&quot;&gt;&lt;b&gt;return&lt;/b&gt;&lt;br&gt;&lt;/span&gt;&lt;span style=&quot;color:#0033b3;&quot;&gt;        &lt;/span&gt;&lt;span style=&quot;color:#b4960a;&quot;&gt;}&lt;br&gt;&lt;/span&gt;&lt;span style=&quot;color:#b4960a;&quot;&gt;    &lt;/span&gt;&lt;span style=&quot;color:#0e4a8e;&quot;&gt;}&lt;/span&gt;&lt;span style=&quot;color:#3f9101;&quot;&gt;)&lt;br&gt;&lt;/span&gt;&lt;span style=&quot;color:#3f9101;&quot;&gt;}&lt;/span&gt;&lt;/pre&gt;&lt;/div&gt;" style="text;whiteSpace=wrap;html=1;" vertex="1" parent="1">
          <mxGeometry x="90" y="90" width="350" height="160" as="geometry" />
        </mxCell>
      </root>
    </mxGraphModel>
  </diagram>
</mxfile>
